<svg width="49" height="48" viewBox="0 0 49 48" fill="none" xmlns="http://www.w3.org/2000/svg">
<path d="M25.0002 6.9516C25.7596 6.9516 26.3872 7.51591 26.4865 8.24806L26.5002 8.4516L26.499 34.8196L35.986 25.2936C36.5706 24.7066 37.5203 24.7045 38.1074 25.2891C38.641 25.8204 38.6912 26.6537 38.2568 27.2418L38.1119 27.4104L26.0639 39.5104C25.9869 39.5878 25.9035 39.655 25.8154 39.712C25.7889 39.7281 25.7618 39.7445 25.7341 39.7601C25.7104 39.7744 25.6858 39.7873 25.6609 39.7995C25.6247 39.8164 25.5873 39.833 25.5491 39.848C25.5197 39.8602 25.491 39.8704 25.4622 39.8797C25.4264 39.8907 25.3882 39.9015 25.3495 39.9107C25.3225 39.9176 25.2965 39.923 25.2704 39.9278C25.2315 39.9344 25.1913 39.9401 25.1506 39.9442C25.1196 39.9477 25.0888 39.9498 25.058 39.9509C25.0394 39.9512 25.0198 39.9516 25.0002 39.9516L24.9421 39.9508C24.9126 39.9497 24.8832 39.9477 24.8539 39.9448L25.0002 39.9516C24.9055 39.9516 24.8129 39.9428 24.7231 39.9261C24.7017 39.9222 24.6797 39.9175 24.6577 39.9124C24.6126 39.9018 24.5691 39.8894 24.5265 39.8753C24.5053 39.8683 24.4827 39.8602 24.4602 39.8515C24.4151 39.834 24.372 39.815 24.3301 39.794C24.3104 39.7843 24.2898 39.7733 24.2694 39.7619C24.2361 39.7432 24.2044 39.7239 24.1735 39.7035C24.1517 39.689 24.129 39.6731 24.1066 39.6564L24.0893 39.6435C24.0365 39.603 23.9865 39.5592 23.9395 39.5123L23.9381 39.5105L11.8881 27.4105C11.3036 26.8235 11.3055 25.8737 11.8925 25.2891C12.4262 24.7577 13.2596 24.711 13.8459 25.148L14.0138 25.2935L23.499 34.8156L23.5002 8.4516C23.5002 7.62317 24.1718 6.9516 25.0002 6.9516Z" fill="#D9DDF2"/>
</svg>
