<svg width="603" height="578" viewBox="0 0 603 578" fill="none" xmlns="http://www.w3.org/2000/svg">
<path d="M229.276 332.744L229.273 332.738C229.146 332.473 229.038 332.24 228.936 332.02C228.797 331.72 228.669 331.442 228.517 331.136L228.489 331.08L228.466 331.022C223.386 318.417 220.57 307.463 219.689 298.471C218.812 289.517 219.839 282.334 222.656 277.428C227.247 269.429 236.794 263.78 249.273 260.014C261.806 256.232 277.591 254.26 295.088 253.842L295.107 253.842H295.126H295.128H295.129H295.13H295.132H295.133H295.134H295.136H295.137H295.138H295.139H295.141H295.142H295.143H295.145H295.146H295.147H295.149H295.15H295.151H295.152H295.154H295.155H295.156H295.158H295.159H295.16H295.162H295.163H295.164H295.165H295.167H295.168H295.169H295.171H295.172H295.173H295.175H295.176H295.177H295.178H295.18H295.181H295.182H295.184H295.185H295.186H295.188H295.189H295.19H295.191H295.193H295.194H295.195H295.197H295.198H295.199H295.201H295.202H295.203H295.204H295.206H295.207H295.208H295.21H295.211H295.212H295.214H295.215H295.216H295.217H295.219H295.22H295.221H295.223H295.224H295.225H295.226H295.228H295.229H295.23H295.232H295.233H295.234H295.236H295.237H295.238H295.239H295.241H295.242H295.243H295.245H295.246H295.247H295.249H295.25H295.251H295.252H295.254H295.255H295.256H295.258H295.259H295.26H295.261H295.263H295.264H295.265H295.267H295.268H295.269H295.271H295.272H295.273H295.274H295.276H295.277H295.278H295.28H295.281H295.282H295.283H295.285H295.286H295.287H295.289H295.29H295.291H295.292H295.294H295.295H295.296H295.298H295.299H295.3H295.302H295.303H295.304H295.305H295.307H295.308H295.309H295.311H295.312H295.313H295.314H295.316H295.317H295.318H295.32H295.321H295.322H295.323H295.325H295.326H295.327H295.329H295.33H295.331H295.332H295.334H295.335H295.336H295.338H295.339H295.34H295.341H295.343H295.344H295.345H295.347H295.348H295.349H295.35H295.352H295.353H295.354H295.356H295.357H295.358H295.359H295.361H295.362H295.363H295.365H295.366H295.367H295.368H295.37H295.371H295.372H295.374H295.375H295.376H295.377H295.379H295.38H295.381H295.383H295.384H295.385H295.386H295.388H295.389H295.39H295.392H295.393H295.394H295.395H295.397H295.398H295.399H295.401H295.402H295.403H295.404H295.406H295.407H295.408H295.409H295.411H295.412H295.413H295.415H295.416H295.417H295.418H295.42H295.421H295.422H295.424H295.425H295.426H295.427H295.429H295.43H295.431H295.432H295.434H295.435H295.436H295.438H295.439H295.44H295.441H295.443H295.444H295.445H295.446H295.448H295.449H295.45H295.452H295.453H295.454H295.455H295.457H295.458H295.459H295.46H295.462H295.463H295.464H295.465H295.467H295.468H295.469H295.471H295.472H295.473H295.474H295.476H295.477H295.478H295.479H295.481H295.482H295.483H295.484H295.486H295.487H295.488H295.49H295.491H295.492H295.493H295.495H295.496H295.497H295.498H295.5H295.501H295.502H295.503H295.505H295.506H295.507H295.508H295.51H295.511H295.512H295.513H295.515H295.516H295.517H295.519H295.52H295.521H295.522H295.524H295.525H295.526H295.527H295.529H295.53H295.531H295.532H295.534H295.535H295.536H295.537H295.539H295.54H295.541H295.542H295.544H295.545H295.546H295.547H295.549H295.55H295.551H295.552H295.554H295.555H295.556H295.557H295.559H295.56H295.561H295.562H295.564H295.565H295.566H295.567H295.569H295.57H295.571H295.572H295.574H295.575H295.576H295.577H295.579H295.58H295.581H295.582H295.584H295.585H295.586H295.587H295.589H295.59H295.591H295.592H295.593H295.595H295.596H295.597H295.598H295.6H295.601H295.602H295.603H295.605H295.606H295.607H295.608H295.61H295.611H295.612H295.613H295.614H295.616H295.617H295.618H295.619H295.621H295.622H295.623H295.624H295.626H295.627H295.628H295.629H295.63H295.632H295.633H295.634H295.635H295.637H295.638H295.639H295.64H295.642H295.643H295.644H295.645H295.646H295.648H295.649H295.65H295.651H295.653H295.654H295.655H295.656H295.657H295.659H295.66H295.661H295.662H295.664H295.665H295.666H295.667H295.668H295.67H295.671H295.672H295.673H295.674H295.676H295.677H295.678H295.679H295.681H295.682H295.683H295.684H295.685H295.687H295.688H295.689H295.69H295.691H295.693H295.694H295.695H295.696H295.698H295.699H295.7H295.701H295.702H295.704H295.705H295.706H295.707H295.708H295.71H295.711H295.712H295.713H295.714H295.716H295.717H295.718H295.719H295.72H295.722H295.723H295.724H295.725H295.726H295.728H295.729H295.73H295.731H295.732H295.734H295.735H295.736H295.737H295.738H295.74H295.741H295.742H295.743H295.744H295.746H295.747H295.748H295.749H295.75H295.751H295.753H295.753C297.595 253.801 299.475 253.781 301.356 253.781C303.236 253.781 305.117 253.801 306.958 253.842H306.959H306.96H306.962H306.963H306.964H306.966H306.967H306.968H306.969H306.971H306.972H306.973H306.975H306.976H306.977H306.978H306.98H306.981H306.982H306.984H306.985H306.986H306.987H306.989H306.99H306.991H306.993H306.994H306.995H306.996H306.998H306.999H307H307.001H307.003H307.004H307.005H307.007H307.008H307.009H307.01H307.012H307.013H307.014H307.016H307.017H307.018H307.019H307.021H307.022H307.023H307.024H307.026H307.027H307.028H307.03H307.031H307.032H307.033H307.035H307.036H307.037H307.038H307.04H307.041H307.042H307.044H307.045H307.046H307.047H307.049H307.05H307.051H307.052H307.054H307.055H307.056H307.057H307.059H307.06H307.061H307.062H307.064H307.065H307.066H307.068H307.069H307.07H307.071H307.073H307.074H307.075H307.076H307.078H307.079H307.08H307.081H307.083H307.084H307.085H307.086H307.088H307.089H307.09H307.091H307.093H307.094H307.095H307.097H307.098H307.099H307.1H307.102H307.103H307.104H307.105H307.107H307.108H307.109H307.11H307.112H307.113H307.114H307.115H307.117H307.118H307.119H307.12H307.122H307.123H307.124H307.125H307.127H307.128H307.129H307.13H307.132H307.133H307.134H307.135H307.137H307.138H307.139H307.14H307.142H307.143H307.144H307.145H307.147H307.148H307.149H307.15H307.152H307.153H307.154H307.155H307.157H307.158H307.159H307.16H307.162H307.163H307.164H307.165H307.167H307.168H307.169H307.17H307.172H307.173H307.174H307.175H307.177H307.178H307.179H307.18H307.181H307.183H307.184H307.185H307.186H307.188H307.189H307.19H307.191H307.193H307.194H307.195H307.196H307.198H307.199H307.2H307.201H307.203H307.204H307.205H307.206H307.208H307.209H307.21H307.211H307.213H307.214H307.215H307.216H307.217H307.219H307.22H307.221H307.222H307.224H307.225H307.226H307.227H307.229H307.23H307.231H307.232H307.234H307.235H307.236H307.237H307.239H307.24H307.241H307.242H307.244H307.245H307.246H307.247H307.249H307.25H307.251H307.252H307.254H307.255H307.256H307.257H307.258H307.26H307.261H307.262H307.263H307.265H307.266H307.267H307.268H307.27H307.271H307.272H307.273H307.275H307.276H307.277H307.278H307.28H307.281H307.282H307.283H307.285H307.286H307.287H307.288H307.289H307.291H307.292H307.293H307.294H307.296H307.297H307.298H307.299H307.301H307.302H307.303H307.304H307.306H307.307H307.308H307.309H307.311H307.312H307.313H307.314H307.316H307.317H307.318H307.319H307.32H307.322H307.323H307.324H307.325H307.327H307.328H307.329H307.33H307.332H307.333H307.334H307.335H307.337H307.338H307.339H307.34H307.342H307.343H307.344H307.345H307.347H307.348H307.349H307.35H307.352H307.353H307.354H307.355H307.357H307.358H307.359H307.36H307.362H307.363H307.364H307.365H307.367H307.368H307.369H307.37H307.372H307.373H307.374H307.375H307.377H307.378H307.379H307.38H307.382H307.383H307.384H307.385H307.387H307.388H307.389H307.39H307.392H307.393H307.394H307.395H307.397H307.398H307.399H307.4H307.402H307.403H307.404H307.405H307.407H307.408H307.409H307.41H307.412H307.413H307.414H307.415H307.417H307.418H307.419H307.42H307.422H307.423H307.424H307.425H307.427H307.428H307.429H307.43H307.432H307.433H307.434H307.435H307.437H307.438H307.439H307.44H307.442H307.443H307.444H307.445H307.447H307.448H307.449H307.451H307.452H307.453H307.454H307.456H307.457H307.458H307.459H307.461H307.462H307.463H307.464H307.466H307.467H307.468H307.469H307.471H307.472H307.473H307.474H307.476H307.477H307.478H307.48H307.481H307.482H307.483H307.485H307.486H307.487H307.488H307.49H307.491H307.492H307.494H307.495H307.496H307.497H307.499H307.5H307.501H307.502H307.504H307.505H307.506H307.508H307.509H307.51H307.511H307.513H307.514H307.515H307.516H307.518H307.519H307.52H307.522H307.523H307.524H307.525H307.527H307.528H307.529H307.531H307.532H307.533H307.534H307.536H307.537H307.538H307.54H307.541H307.542H307.543H307.545H307.546H307.547H307.549H307.55H307.551H307.552H307.554H307.555H307.556H307.558H307.559H307.56H307.561H307.563H307.564H307.565H307.567H307.568H307.569H307.57H307.572H307.573H307.574H307.576H307.577H307.578H307.58H307.581H307.582H307.583H307.585H307.604L307.623 253.842C325.12 254.26 340.91 256.232 353.446 260.014C365.927 263.779 375.476 269.429 380.056 277.43C383.55 283.517 384.421 291.411 383.336 300.396C382.249 309.4 379.18 319.661 374.601 330.635L374.585 330.672L374.568 330.709C363.637 353.572 351.302 374 338.827 388.74C332.59 396.109 326.282 402.101 320.056 406.261C313.843 410.412 307.619 412.801 301.577 412.806L229.276 332.744ZM229.276 332.744C242.551 360.186 256.302 380.127 268.83 393.234M229.276 332.744L268.83 393.234M413.318 194.963L411.441 194.524C385.672 188.496 358.663 184.21 332.791 182.37C332.791 182.37 332.791 182.37 332.791 182.37L332.904 180.771L413.318 194.963ZM413.318 194.963L413.408 193.038C413.509 190.848 413.571 188.652 413.571 186.532C413.571 124.413 363.352 73.8418 301.577 73.8418C239.809 73.8418 189.595 124.402 189.584 186.512L413.318 194.963ZM268.83 393.234C275.093 399.787 281.078 404.66 286.573 407.903M268.83 393.234L286.573 407.903M286.573 407.903C292.045 411.133 297.124 412.801 301.557 412.806L286.573 407.903ZM484.305 217.966C492.739 221.622 500.557 225.443 507.56 229.413L509.256 230.398C597.007 281.378 627.192 394.714 576.526 483.03C542.532 542.297 480.621 575.461 417.068 575.461C385.916 575.461 354.385 567.499 325.507 550.727C318.092 546.403 310.302 541.144 302.316 535.167L301.356 534.449L300.395 535.167C292.408 541.145 284.639 546.403 277.206 550.726C248.348 567.498 216.796 575.461 185.643 575.461C122.07 575.461 60.1795 542.297 26.1858 483.031L24.7953 483.828L26.1857 483.03C-24.4807 394.714 5.70427 281.378 93.4555 230.398L93.4565 230.397C100.99 226.014 109.519 221.802 118.808 217.784L119.908 217.308L119.763 216.119C118.479 205.58 117.799 195.625 117.799 186.532C117.799 84.5569 200.266 1.60296 301.577 1.60296C402.888 1.60296 485.336 84.5567 485.336 186.532C485.336 195.686 484.656 205.702 483.352 216.3L483.206 217.489L484.305 217.966ZM136.356 291.35L135.782 289.475L134.059 290.409C133.569 290.674 133.06 290.944 132.544 291.217C131.47 291.785 130.365 292.369 129.34 292.968C75.8585 324.046 57.4804 393.084 88.357 446.893C119.217 500.689 187.853 519.196 241.341 488.135L241.342 488.135C242.252 487.606 243.187 487.017 244.097 486.445C244.501 486.191 244.901 485.94 245.291 485.698L246.947 484.672L245.622 483.245C227.59 463.824 210.428 442.488 195.945 420.9L195.945 420.899C181.138 398.841 169.764 377.801 161.729 357.919L161.714 357.882L161.697 357.845C151.872 336.676 143.27 313.964 136.356 291.35ZM361.407 488.133L361.41 488.135C414.631 519.061 482.828 500.893 513.928 447.699H513.953L514.415 446.893C545.291 393.085 526.914 324.028 473.434 292.97C472.267 292.289 471.029 291.635 469.836 291.005C469.569 290.864 469.305 290.724 469.044 290.585L467.329 289.675L466.759 291.53C459.121 316.41 449.515 341.424 438.429 364.345C438.306 364.593 438.181 364.834 438.05 365.087C437.986 365.211 437.92 365.338 437.854 365.469C437.785 365.603 437.716 365.74 437.646 365.88L437.63 365.913L437.615 365.946C429.877 383.456 419.644 401.794 406.807 420.899L408.137 421.793L406.807 420.899C392.303 442.488 375.161 463.825 357.13 483.245L355.824 484.65L357.44 485.685C358.778 486.542 360.13 487.387 361.407 488.133Z" stroke="url(#paint0_linear_150_162)" stroke-width="3.20591"/>
<defs>
<linearGradient id="paint0_linear_150_162" x1="-95.2108" y1="-42.5809" x2="569.297" y2="599.192" gradientUnits="userSpaceOnUse">
<stop stop-color="#FF8E54"/>
<stop offset="0.515625" stop-color="#DA33D0"/>
<stop offset="1" stop-color="#7832D7"/>
</linearGradient>
</defs>
</svg>
