<svg width="603" height="242" viewBox="0 0 603 242" fill="none" xmlns="http://www.w3.org/2000/svg">
<path d="M229.565 332.744L229.562 332.738C229.435 332.473 229.327 332.24 229.225 332.02C229.086 331.72 228.958 331.442 228.806 331.136L228.778 331.08L228.755 331.022C223.675 318.417 220.859 307.463 219.978 298.471C219.101 289.517 220.128 282.334 222.945 277.428C227.536 269.429 237.083 263.78 249.562 260.014C262.095 256.232 277.88 254.26 295.377 253.842L295.396 253.842H295.415H295.417H295.418H295.419H295.421H295.422H295.423H295.424H295.426H295.427H295.428H295.43H295.431H295.432H295.434H295.435H295.436H295.437H295.439H295.44H295.441H295.443H295.444H295.445H295.447H295.448H295.449H295.45H295.452H295.453H295.454H295.456H295.457H295.458H295.46H295.461H295.462H295.463H295.465H295.466H295.467H295.469H295.47H295.471H295.473H295.474H295.475H295.476H295.478H295.479H295.48H295.482H295.483H295.484H295.486H295.487H295.488H295.489H295.491H295.492H295.493H295.495H295.496H295.497H295.499H295.5H295.501H295.502H295.504H295.505H295.506H295.508H295.509H295.51H295.511H295.513H295.514H295.515H295.517H295.518H295.519H295.521H295.522H295.523H295.524H295.526H295.527H295.528H295.53H295.531H295.532H295.534H295.535H295.536H295.537H295.539H295.54H295.541H295.543H295.544H295.545H295.546H295.548H295.549H295.55H295.552H295.553H295.554H295.556H295.557H295.558H295.559H295.561H295.562H295.563H295.565H295.566H295.567H295.568H295.57H295.571H295.572H295.574H295.575H295.576H295.577H295.579H295.58H295.581H295.583H295.584H295.585H295.587H295.588H295.589H295.59H295.592H295.593H295.594H295.596H295.597H295.598H295.599H295.601H295.602H295.603H295.605H295.606H295.607H295.608H295.61H295.611H295.612H295.614H295.615H295.616H295.617H295.619H295.62H295.621H295.623H295.624H295.625H295.627H295.628H295.629H295.63H295.632H295.633H295.634H295.636H295.637H295.638H295.639H295.641H295.642H295.643H295.645H295.646H295.647H295.648H295.65H295.651H295.652H295.654H295.655H295.656H295.657H295.659H295.66H295.661H295.663H295.664H295.665H295.666H295.668H295.669H295.67H295.671H295.673H295.674H295.675H295.677H295.678H295.679H295.68H295.682H295.683H295.684H295.686H295.687H295.688H295.689H295.691H295.692H295.693H295.695H295.696H295.697H295.698H295.7H295.701H295.702H295.703H295.705H295.706H295.707H295.709H295.71H295.711H295.712H295.714H295.715H295.716H295.717H295.719H295.72H295.721H295.723H295.724H295.725H295.726H295.728H295.729H295.73H295.732H295.733H295.734H295.735H295.737H295.738H295.739H295.74H295.742H295.743H295.744H295.745H295.747H295.748H295.749H295.751H295.752H295.753H295.754H295.756H295.757H295.758H295.759H295.761H295.762H295.763H295.764H295.766H295.767H295.768H295.77H295.771H295.772H295.773H295.775H295.776H295.777H295.778H295.78H295.781H295.782H295.783H295.785H295.786H295.787H295.789H295.79H295.791H295.792H295.794H295.795H295.796H295.797H295.799H295.8H295.801H295.802H295.804H295.805H295.806H295.807H295.809H295.81H295.811H295.812H295.814H295.815H295.816H295.817H295.819H295.82H295.821H295.822H295.824H295.825H295.826H295.827H295.829H295.83H295.831H295.833H295.834H295.835H295.836H295.838H295.839H295.84H295.841H295.842H295.844H295.845H295.846H295.848H295.849H295.85H295.851H295.853H295.854H295.855H295.856H295.857H295.859H295.86H295.861H295.862H295.864H295.865H295.866H295.867H295.869H295.87H295.871H295.872H295.874H295.875H295.876H295.877H295.879H295.88H295.881H295.882H295.884H295.885H295.886H295.887H295.889H295.89H295.891H295.892H295.893H295.895H295.896H295.897H295.898H295.9H295.901H295.902H295.903H295.905H295.906H295.907H295.908H295.91H295.911H295.912H295.913H295.914H295.916H295.917H295.918H295.919H295.921H295.922H295.923H295.924H295.926H295.927H295.928H295.929H295.93H295.932H295.933H295.934H295.935H295.937H295.938H295.939H295.94H295.941H295.943H295.944H295.945H295.946H295.948H295.949H295.95H295.951H295.952H295.954H295.955H295.956H295.957H295.958H295.96H295.961H295.962H295.963H295.965H295.966H295.967H295.968H295.969H295.971H295.972H295.973H295.974H295.975H295.977H295.978H295.979H295.98H295.982H295.983H295.984H295.985H295.986H295.988H295.989H295.99H295.991H295.992H295.994H295.995H295.996H295.997H295.998H296H296.001H296.002H296.003H296.004H296.006H296.007H296.008H296.009H296.01H296.012H296.013H296.014H296.015H296.016H296.018H296.019H296.02H296.021H296.022H296.024H296.025H296.026H296.027H296.028H296.03H296.031H296.032H296.033H296.034H296.036H296.037H296.038H296.039H296.04H296.042H296.042C297.883 253.801 299.764 253.781 301.645 253.781C303.525 253.781 305.406 253.801 307.247 253.842H307.248H307.249H307.251H307.252H307.253H307.254H307.256H307.257H307.258H307.26H307.261H307.262H307.263H307.265H307.266H307.267H307.269H307.27H307.271H307.272H307.274H307.275H307.276H307.278H307.279H307.28H307.281H307.283H307.284H307.285H307.287H307.288H307.289H307.29H307.292H307.293H307.294H307.296H307.297H307.298H307.299H307.301H307.302H307.303H307.304H307.306H307.307H307.308H307.31H307.311H307.312H307.313H307.315H307.316H307.317H307.318H307.32H307.321H307.322H307.324H307.325H307.326H307.327H307.329H307.33H307.331H307.332H307.334H307.335H307.336H307.337H307.339H307.34H307.341H307.343H307.344H307.345H307.346H307.348H307.349H307.35H307.351H307.353H307.354H307.355H307.356H307.358H307.359H307.36H307.361H307.363H307.364H307.365H307.367H307.368H307.369H307.37H307.372H307.373H307.374H307.375H307.377H307.378H307.379H307.38H307.382H307.383H307.384H307.385H307.387H307.388H307.389H307.39H307.392H307.393H307.394H307.395H307.397H307.398H307.399H307.4H307.402H307.403H307.404H307.405H307.407H307.408H307.409H307.41H307.412H307.413H307.414H307.415H307.417H307.418H307.419H307.42H307.422H307.423H307.424H307.425H307.427H307.428H307.429H307.43H307.432H307.433H307.434H307.435H307.437H307.438H307.439H307.44H307.442H307.443H307.444H307.445H307.447H307.448H307.449H307.45H307.452H307.453H307.454H307.455H307.457H307.458H307.459H307.46H307.462H307.463H307.464H307.465H307.467H307.468H307.469H307.47H307.472H307.473H307.474H307.475H307.477H307.478H307.479H307.48H307.482H307.483H307.484H307.485H307.487H307.488H307.489H307.49H307.491H307.493H307.494H307.495H307.496H307.498H307.499H307.5H307.501H307.503H307.504H307.505H307.506H307.508H307.509H307.51H307.511H307.513H307.514H307.515H307.516H307.518H307.519H307.52H307.521H307.523H307.524H307.525H307.526H307.527H307.529H307.53H307.531H307.532H307.534H307.535H307.536H307.537H307.539H307.54H307.541H307.542H307.544H307.545H307.546H307.547H307.549H307.55H307.551H307.552H307.554H307.555H307.556H307.557H307.559H307.56H307.561H307.562H307.563H307.565H307.566H307.567H307.568H307.57H307.571H307.572H307.573H307.575H307.576H307.577H307.578H307.58H307.581H307.582H307.583H307.585H307.586H307.587H307.588H307.59H307.591H307.592H307.593H307.594H307.596H307.597H307.598H307.599H307.601H307.602H307.603H307.604H307.606H307.607H307.608H307.609H307.611H307.612H307.613H307.614H307.616H307.617H307.618H307.619H307.621H307.622H307.623H307.624H307.626H307.627H307.628H307.629H307.631H307.632H307.633H307.634H307.635H307.637H307.638H307.639H307.64H307.642H307.643H307.644H307.645H307.647H307.648H307.649H307.65H307.652H307.653H307.654H307.655H307.657H307.658H307.659H307.66H307.662H307.663H307.664H307.665H307.667H307.668H307.669H307.67H307.672H307.673H307.674H307.675H307.677H307.678H307.679H307.68H307.682H307.683H307.684H307.685H307.687H307.688H307.689H307.69H307.692H307.693H307.694H307.695H307.697H307.698H307.699H307.7H307.702H307.703H307.704H307.705H307.707H307.708H307.709H307.71H307.712H307.713H307.714H307.715H307.717H307.718H307.719H307.72H307.722H307.723H307.724H307.726H307.727H307.728H307.729H307.731H307.732H307.733H307.734H307.736H307.737H307.738H307.739H307.741H307.742H307.743H307.744H307.746H307.747H307.748H307.749H307.751H307.752H307.753H307.755H307.756H307.757H307.758H307.76H307.761H307.762H307.763H307.765H307.766H307.767H307.768H307.77H307.771H307.772H307.773H307.775H307.776H307.777H307.779H307.78H307.781H307.782H307.784H307.785H307.786H307.787H307.789H307.79H307.791H307.793H307.794H307.795H307.796H307.798H307.799H307.8H307.802H307.803H307.804H307.805H307.807H307.808H307.809H307.81H307.812H307.813H307.814H307.816H307.817H307.818H307.819H307.821H307.822H307.823H307.825H307.826H307.827H307.828H307.83H307.831H307.832H307.834H307.835H307.836H307.837H307.839H307.84H307.841H307.843H307.844H307.845H307.846H307.848H307.849H307.85H307.852H307.853H307.854H307.855H307.857H307.858H307.859H307.861H307.862H307.863H307.865H307.866H307.867H307.868H307.87H307.871H307.872H307.874H307.893L307.912 253.842C325.409 254.26 341.199 256.232 353.734 260.014C366.215 263.779 375.765 269.429 380.345 277.43C383.839 283.517 384.71 291.411 383.625 300.396C382.538 309.4 379.469 319.661 374.89 330.635L374.874 330.672L374.856 330.709C363.926 353.572 351.591 374 339.116 388.74C332.879 396.109 326.571 402.101 320.345 406.261C314.132 410.412 307.908 412.801 301.866 412.806L229.565 332.744ZM229.565 332.744C242.84 360.186 256.59 380.127 269.118 393.234M229.565 332.744L269.118 393.234M413.607 194.963L411.73 194.524C385.961 188.496 358.952 184.21 333.08 182.37C333.08 182.37 333.08 182.37 333.08 182.37L333.193 180.771L413.607 194.963ZM413.607 194.963L413.696 193.038C413.798 190.848 413.859 188.652 413.859 186.532C413.859 124.413 363.641 73.8418 301.866 73.8418C240.098 73.8418 189.884 124.402 189.873 186.512L413.607 194.963ZM269.118 393.234C275.382 399.787 281.367 404.66 286.861 407.903M269.118 393.234L286.861 407.903M286.861 407.903C292.334 411.133 297.413 412.801 301.846 412.806L286.861 407.903ZM484.594 217.966C493.028 221.622 500.846 225.443 507.849 229.413L509.545 230.398C597.296 281.378 627.481 394.714 576.814 483.03C542.821 542.297 480.91 575.461 417.357 575.461C386.205 575.461 354.674 567.499 325.796 550.727C318.381 546.403 310.591 541.144 302.605 535.167L301.645 534.449L300.684 535.167C292.697 541.145 284.928 546.403 277.495 550.726C248.637 567.498 217.085 575.461 185.932 575.461C122.359 575.461 60.4684 542.297 26.4747 483.031L25.0842 483.828L26.4746 483.03C-24.1918 394.714 5.99315 281.378 93.7444 230.398L93.7453 230.397C101.279 226.014 109.808 221.802 119.097 217.784L120.196 217.308L120.052 216.119C118.768 205.58 118.088 195.625 118.088 186.532C118.088 84.5569 200.555 1.60296 301.866 1.60296C403.177 1.60296 485.625 84.5567 485.625 186.532C485.625 195.686 484.945 205.702 483.641 216.3L483.494 217.489L484.594 217.966ZM136.645 291.35L136.071 289.475L134.348 290.409C133.858 290.674 133.349 290.944 132.833 291.217C131.759 291.785 130.654 292.369 129.629 292.968C76.1473 324.046 57.7693 393.084 88.6459 446.893C119.506 500.689 188.142 519.196 241.63 488.135L241.631 488.135C242.541 487.606 243.476 487.017 244.386 486.445C244.79 486.191 245.19 485.94 245.58 485.698L247.236 484.672L245.911 483.245C227.879 463.824 210.717 442.488 196.234 420.9L196.234 420.899C181.427 398.841 170.053 377.801 162.018 357.919L162.003 357.882L161.986 357.845C152.161 336.676 143.559 313.964 136.645 291.35ZM361.696 488.133L361.699 488.135C414.92 519.061 483.117 500.893 514.217 447.699H514.242L514.704 446.893C545.579 393.085 527.203 324.028 473.722 292.97C472.556 292.289 471.318 291.635 470.125 291.005C469.858 290.864 469.594 290.724 469.332 290.585L467.618 289.675L467.048 291.53C459.41 316.41 449.804 341.424 438.718 364.345C438.594 364.593 438.47 364.834 438.339 365.087C438.275 365.211 438.209 365.338 438.143 365.469C438.074 365.603 438.004 365.74 437.935 365.88L437.919 365.913L437.904 365.946C430.166 383.456 419.933 401.794 407.096 420.899L408.426 421.793L407.096 420.899C392.592 442.488 375.45 463.825 357.419 483.245L356.113 484.65L357.729 485.685C359.067 486.542 360.418 487.387 361.696 488.133Z" stroke="url(#paint0_linear_108_27)" stroke-width="3.20591"/>
<defs>
<linearGradient id="paint0_linear_108_27" x1="-94.9219" y1="-42.5809" x2="569.585" y2="599.192" gradientUnits="userSpaceOnUse">
<stop stop-color="#FF8E54"/>
<stop offset="0.515625" stop-color="#DA33D0"/>
<stop offset="1" stop-color="#7832D7"/>
</linearGradient>
</defs>
</svg>
