<svg width="68" height="66" viewBox="0 0 68 66" fill="none" xmlns="http://www.w3.org/2000/svg">
<path d="M57.5491 26.1926C56.7031 25.6937 55.7478 25.2158 54.713 24.761C54.8608 23.5429 54.9381 22.3898 54.9381 21.3341C54.9381 9.57077 45.5562 0 34.025 0C22.4938 0 13.1096 9.57077 13.1096 21.3341C13.1096 22.3828 13.187 23.529 13.3325 24.7401C12.2795 25.2019 11.3106 25.6868 10.4531 26.1926C0.466234 32.0742 -2.96811 45.1485 2.7975 55.3364C6.66625 62.174 13.7101 66 20.9449 66C24.4907 66 28.082 65.0812 31.3662 63.1462C32.2123 62.6473 33.0948 62.0418 34 61.355C34.9052 62.0418 35.79 62.6473 36.6338 63.1462C39.9203 65.0812 43.5093 66 47.0551 66C54.2877 66 61.3337 62.174 65.2025 55.3364C70.9681 45.1485 67.5338 32.0742 57.5469 26.1926H57.5491ZM34.025 47.0302C32.1964 47.0302 29.0145 44.2297 26.0305 37.9768C26.0009 37.9142 25.9736 37.8515 25.9441 37.7912C24.8069 34.9304 24.6954 32.8492 25.2777 31.8213C26.2443 30.1137 29.367 29.3109 33.2972 29.2158C33.3222 29.2158 33.3472 29.2158 33.37 29.2158C33.577 29.2111 33.7885 29.2088 34 29.2088C34.2115 29.2088 34.423 29.2111 34.63 29.2158C34.655 29.2158 34.6778 29.2158 34.7028 29.2158C38.633 29.3109 41.758 30.1137 42.7223 31.8213C43.457 33.1183 43.1226 35.2529 42.0969 37.7448C39.6382 42.9582 36.561 47.0302 34.0227 47.0302H34.025ZM21.5704 21.3341C21.5704 14.3295 27.1563 8.62877 34.025 8.62877C40.8937 8.62877 46.4796 14.3295 46.4796 21.3341C46.4796 21.5731 46.4728 21.8213 46.4614 22.0696C43.5457 21.3782 40.4889 20.8863 37.5594 20.6752C36.2949 20.5847 35.0849 20.5429 33.9249 20.5522C32.8128 20.5476 31.6528 20.587 30.4451 20.6752C27.5316 20.8863 24.4907 21.3736 21.5886 22.058C21.5772 21.8051 21.5704 21.5615 21.5704 21.3318V21.3341ZM10.1256 51.0209C6.69127 44.9536 8.73596 37.1694 14.6835 33.6659C14.8518 33.5661 15.0338 33.4733 15.2112 33.3759C15.9936 35.9698 16.967 38.5754 18.0792 41.0046C18.9912 43.2923 20.2808 45.71 21.957 48.2413C23.5969 50.7193 25.5392 53.1671 27.5794 55.3944C27.4315 55.4872 27.2837 55.5847 27.1381 55.6705C21.1906 59.1717 13.5577 57.0858 10.1256 51.0209ZM57.8789 51.0209C54.4446 57.0882 46.814 59.174 40.8664 55.6705C40.7254 55.587 40.5753 55.4919 40.4252 55.3944C42.4653 53.1671 44.4054 50.7193 46.0475 48.2413C47.5008 46.0487 48.6608 43.942 49.5387 41.9281C49.5683 41.8678 49.5978 41.8121 49.6274 41.7517C50.8829 39.1207 51.97 36.2506 52.8343 33.3968C52.9981 33.4849 53.1664 33.5731 53.3233 33.6659C59.2709 37.1671 61.3156 44.9536 57.8812 51.0209H57.8789Z" fill="url(#paint0_linear_108_94)"/>
<defs>
<linearGradient id="paint0_linear_108_94" x1="-10.742" y1="-4.87007" x2="65.216" y2="67.4959" gradientUnits="userSpaceOnUse">
<stop stop-color="#FF8E54"/>
<stop offset="0.515625" stop-color="#DA33D0"/>
<stop offset="1" stop-color="#7832D7"/>
</linearGradient>
</defs>
</svg>
