<svg width="128" height="122" viewBox="0 0 128 122" fill="none" xmlns="http://www.w3.org/2000/svg">
<path d="M108.324 48.1242C106.732 47.2076 104.934 46.3295 102.986 45.4939C103.264 43.2559 103.409 41.1372 103.409 39.1976C103.409 17.5846 85.75 0 64.0449 0C42.3398 0 24.6761 17.5846 24.6761 39.1976C24.6761 41.1244 24.8217 43.2303 25.0957 45.4556C23.1135 46.3039 21.2898 47.1948 19.6758 48.1242C0.877587 58.9307 -5.58684 82.9523 5.26569 101.671C12.5478 114.234 25.8063 121.263 39.4244 121.263C46.0986 121.263 52.8585 119.575 59.0403 116.02C60.6329 115.103 62.294 113.991 63.9978 112.729C65.7017 113.991 67.367 115.103 68.9553 116.02C75.1415 119.575 81.897 121.263 88.5712 121.263C102.185 121.263 115.448 114.234 122.73 101.671C133.582 82.9523 127.118 58.9307 108.32 48.1242H108.324ZM64.0449 86.4095C60.6029 86.4095 54.6137 81.2641 48.9969 69.7756C48.9413 69.6605 48.8899 69.5454 48.8342 69.4345C46.6937 64.1783 46.4839 60.3545 47.5799 58.466C49.3993 55.3285 55.2773 53.8535 62.675 53.6788C62.7221 53.6788 62.7692 53.6788 62.812 53.6788C63.2015 53.6702 63.5997 53.666 63.9978 53.666C64.396 53.666 64.7941 53.6702 65.1837 53.6788C65.2308 53.6788 65.2736 53.6788 65.3207 53.6788C72.7184 53.8535 78.6006 55.3285 80.4158 58.466C81.7986 60.849 81.1692 64.7709 79.2385 69.3493C74.6106 78.9281 68.8183 86.4095 64.0406 86.4095H64.0449ZM40.6017 39.1976C40.6017 26.3278 51.1161 15.8538 64.0449 15.8538C76.9738 15.8538 87.4881 26.3278 87.4881 39.1976C87.4881 39.6367 87.4753 40.0928 87.4539 40.5489C81.9655 39.2786 76.2117 38.3749 70.6977 37.9869C68.3174 37.8207 66.0399 37.7439 63.8566 37.761C61.7631 37.7525 59.5798 37.8249 57.3065 37.9869C51.8224 38.3749 46.0986 39.2701 40.636 40.5276C40.6146 40.063 40.6017 39.6154 40.6017 39.1933V39.1976ZM19.0593 93.7417C12.5949 82.5942 16.4436 68.2921 27.6386 61.855C27.9554 61.6717 28.2979 61.5012 28.6318 61.3222C30.1045 66.0881 31.9368 70.8754 34.0303 75.3387C35.747 79.5419 38.1744 83.9839 41.3295 88.6347C44.4162 93.1875 48.0722 97.6849 51.9123 101.777C51.6341 101.948 51.3558 102.127 51.0818 102.285C39.8868 108.717 25.5195 104.885 19.0593 93.7417ZM108.945 93.7417C102.48 104.889 88.1174 108.722 76.9224 102.285C76.657 102.131 76.3744 101.956 76.0919 101.777C79.932 97.6849 83.5838 93.1875 86.6747 88.6347C89.4103 84.6063 91.5937 80.7355 93.2462 77.0353C93.3018 76.9245 93.3575 76.8222 93.4131 76.7113C95.7763 71.8772 97.8226 66.6039 99.4495 61.3605C99.7577 61.5225 100.074 61.6845 100.37 61.855C111.565 68.2878 115.414 82.5942 108.949 93.7417H108.945Z" fill="url(#paint0_linear_892_6)"/>
<defs>
<linearGradient id="paint0_linear_892_6" x1="-20.2196" y1="-8.94788" x2="119.462" y2="127.386" gradientUnits="userSpaceOnUse">
<stop stop-color="#FF8E54"/>
<stop offset="0.515625" stop-color="#DA33D0"/>
<stop offset="1" stop-color="#7832D7"/>
</linearGradient>
</defs>
</svg>
