<svg width="36" height="36" viewBox="0 0 36 36" fill="none" xmlns="http://www.w3.org/2000/svg">
<path d="M4.5 6C4.89782 6 5.27936 5.84196 5.56066 5.56066C5.84196 5.27936 6 4.89782 6 4.5C6 4.10218 5.84196 3.72064 5.56066 3.43934C5.27936 3.15804 4.89782 3 4.5 3C4.10218 3 3.72064 3.15804 3.43934 3.43934C3.15804 3.72064 3 4.10218 3 4.5C3 4.89782 3.15804 5.27936 3.43934 5.56066C3.72064 5.84196 4.10218 6 4.5 6ZM4.5 33C4.89782 33 5.27936 32.842 5.56066 32.5607C5.84196 32.2794 6 31.8978 6 31.5C6 31.1022 5.84196 30.7206 5.56066 30.4393C5.27936 30.158 4.89782 30 4.5 30C4.10218 30 3.72064 30.158 3.43934 30.4393C3.15804 30.7206 3 31.1022 3 31.5C3 31.8978 3.15804 32.2794 3.43934 32.5607C3.72064 32.842 4.10218 33 4.5 33ZM31.5 6C31.8978 6 32.2794 5.84196 32.5607 5.56066C32.842 5.27936 33 4.89782 33 4.5C33 4.10218 32.842 3.72064 32.5607 3.43934C32.2794 3.15804 31.8978 3 31.5 3C31.1022 3 30.7206 3.15804 30.4393 3.43934C30.158 3.72064 30 4.10218 30 4.5C30 4.89782 30.158 5.27936 30.4393 5.56066C30.7206 5.84196 31.1022 6 31.5 6Z" fill="#07184F"/>
<path d="M4.5 5.4H5.25H4.5ZM5.4 4.5V3.75V4.5ZM25.5 30.75C25.0858 30.75 24.75 31.0858 24.75 31.5C24.75 31.9142 25.0858 32.25 25.5 32.25V30.75ZM30.6 31.5V32.25V31.5ZM31.5 30.6H32.25H31.5ZM32.25 25.5C32.25 25.0858 31.9142 24.75 31.5 24.75C31.0858 24.75 30.75 25.0858 30.75 25.5H32.25ZM32.25 10.5C32.25 10.0858 31.9142 9.75 31.5 9.75C31.0858 9.75 30.75 10.0858 30.75 10.5H32.25ZM30.75 13.5C30.75 13.9142 31.0858 14.25 31.5 14.25C31.9142 14.25 32.25 13.9142 32.25 13.5H30.75ZM32.25 18C32.25 17.5858 31.9142 17.25 31.5 17.25C31.0858 17.25 30.75 17.5858 30.75 18H32.25ZM30.75 21C30.75 21.4142 31.0858 21.75 31.5 21.75C31.9142 21.75 32.25 21.4142 32.25 21H30.75ZM10.5 30.75C10.0858 30.75 9.75 31.0858 9.75 31.5C9.75 31.9142 10.0858 32.25 10.5 32.25V30.75ZM13.5 32.25C13.9142 32.25 14.25 31.9142 14.25 31.5C14.25 31.0858 13.9142 30.75 13.5 30.75V32.25ZM18 30.75C17.5858 30.75 17.25 31.0858 17.25 31.5C17.25 31.9142 17.5858 32.25 18 32.25V30.75ZM21 32.25C21.4142 32.25 21.75 31.9142 21.75 31.5C21.75 31.0858 21.4142 30.75 21 30.75V32.25ZM5.56066 5.56066L6.09099 6.09099L6.09099 6.09099L5.56066 5.56066ZM5.56066 3.43934L6.09099 2.90901L6.09099 2.90901L5.56066 3.43934ZM4.5 3V2.25V3ZM3.43934 3.43934L3.96967 3.96967L3.96967 3.96967L3.43934 3.43934ZM3 4.5H2.25H3ZM3.43934 5.56066L2.90901 6.09099L2.90901 6.09099L3.43934 5.56066ZM5.56066 32.5607L6.09099 33.091H6.09099L5.56066 32.5607ZM5.56066 30.4393L6.09099 29.909H6.09099L5.56066 30.4393ZM3.43934 30.4393L3.96967 30.9697H3.96967L3.43934 30.4393ZM3 31.5H2.25H3ZM3.43934 32.5607L3.96967 32.0303H3.96967L3.43934 32.5607ZM32.5607 5.56066L33.091 6.09099V6.09099L32.5607 5.56066ZM32.5607 3.43934L32.0303 3.96967V3.96967L32.5607 3.43934ZM31.5 3V2.25V3ZM30.4393 3.43934L30.9697 3.96967V3.96967L30.4393 3.43934ZM30.4393 5.56066L29.909 6.09099V6.09099L30.4393 5.56066ZM5.25 31.5V5.4H3.75V31.5H5.25ZM5.25 5.4C5.25 5.36022 5.2658 5.32206 5.29393 5.29393L4.23327 4.23327C3.92384 4.54271 3.75 4.96239 3.75 5.4H5.25ZM5.29393 5.29393C5.32206 5.2658 5.36022 5.25 5.4 5.25V3.75C4.96239 3.75 4.54271 3.92384 4.23327 4.23327L5.29393 5.29393ZM5.4 5.25H31.5V3.75H5.4V5.25ZM25.5 32.25H30.6V30.75H25.5V32.25ZM30.6 32.25C31.0376 32.25 31.4573 32.0762 31.7667 31.7667L30.7061 30.7061C30.6779 30.7342 30.6398 30.75 30.6 30.75V32.25ZM31.7667 31.7667C32.0762 31.4573 32.25 31.0376 32.25 30.6H30.75C30.75 30.6398 30.7342 30.6779 30.7061 30.7061L31.7667 31.7667ZM32.25 30.6V25.5H30.75V30.6H32.25ZM30.75 10.5V13.5H32.25V10.5H30.75ZM30.75 18V21H32.25V18H30.75ZM10.5 32.25H13.5V30.75H10.5V32.25ZM18 32.25H21V30.75H18V32.25ZM4.5 6.75C5.09674 6.75 5.66903 6.51295 6.09099 6.09099L5.03033 5.03033C4.88968 5.17098 4.69891 5.25 4.5 5.25V6.75ZM6.09099 6.09099C6.51295 5.66903 6.75 5.09674 6.75 4.5H5.25C5.25 4.69891 5.17098 4.88968 5.03033 5.03033L6.09099 6.09099ZM6.75 4.5C6.75 3.90326 6.51295 3.33097 6.09099 2.90901L5.03033 3.96967C5.17098 4.11032 5.25 4.30109 5.25 4.5H6.75ZM6.09099 2.90901C5.66903 2.48705 5.09674 2.25 4.5 2.25V3.75C4.69891 3.75 4.88968 3.82902 5.03033 3.96967L6.09099 2.90901ZM4.5 2.25C3.90326 2.25 3.33097 2.48705 2.90901 2.90901L3.96967 3.96967C4.11032 3.82902 4.30109 3.75 4.5 3.75V2.25ZM2.90901 2.90901C2.48705 3.33097 2.25 3.90326 2.25 4.5H3.75C3.75 4.30109 3.82902 4.11032 3.96967 3.96967L2.90901 2.90901ZM2.25 4.5C2.25 5.09674 2.48705 5.66903 2.90901 6.09099L3.96967 5.03033C3.82902 4.88968 3.75 4.69891 3.75 4.5H2.25ZM2.90901 6.09099C3.33097 6.51295 3.90326 6.75 4.5 6.75V5.25C4.30109 5.25 4.11032 5.17098 3.96967 5.03033L2.90901 6.09099ZM4.5 33.75C5.09673 33.75 5.66903 33.513 6.09099 33.091L5.03033 32.0303C4.88968 32.171 4.69891 32.25 4.5 32.25V33.75ZM6.09099 33.091C6.51295 32.669 6.75 32.0967 6.75 31.5H5.25C5.25 31.6989 5.17098 31.8897 5.03033 32.0303L6.09099 33.091ZM6.75 31.5C6.75 30.9033 6.51295 30.331 6.09099 29.909L5.03033 30.9697C5.17098 31.1103 5.25 31.3011 5.25 31.5H6.75ZM6.09099 29.909C5.66903 29.487 5.09673 29.25 4.5 29.25V30.75C4.69891 30.75 4.88968 30.829 5.03033 30.9697L6.09099 29.909ZM4.5 29.25C3.90327 29.25 3.33097 29.487 2.90901 29.909L3.96967 30.9697C4.11032 30.829 4.30109 30.75 4.5 30.75V29.25ZM2.90901 29.909C2.48705 30.331 2.25 30.9033 2.25 31.5H3.75C3.75 31.3011 3.82902 31.1103 3.96967 30.9697L2.90901 29.909ZM2.25 31.5C2.25 32.0967 2.48705 32.669 2.90901 33.091L3.96967 32.0303C3.82902 31.8897 3.75 31.6989 3.75 31.5H2.25ZM2.90901 33.091C3.33097 33.513 3.90327 33.75 4.5 33.75V32.25C4.30109 32.25 4.11032 32.171 3.96967 32.0303L2.90901 33.091ZM31.5 6.75C32.0967 6.75 32.669 6.51295 33.091 6.09099L32.0303 5.03033C31.8897 5.17098 31.6989 5.25 31.5 5.25V6.75ZM33.091 6.09099C33.513 5.66903 33.75 5.09673 33.75 4.5H32.25C32.25 4.69891 32.171 4.88968 32.0303 5.03033L33.091 6.09099ZM33.75 4.5C33.75 3.90327 33.513 3.33097 33.091 2.90901L32.0303 3.96967C32.171 4.11032 32.25 4.30109 32.25 4.5H33.75ZM33.091 2.90901C32.669 2.48705 32.0967 2.25 31.5 2.25V3.75C31.6989 3.75 31.8897 3.82902 32.0303 3.96967L33.091 2.90901ZM31.5 2.25C30.9033 2.25 30.331 2.48705 29.909 2.90901L30.9697 3.96967C31.1103 3.82902 31.3011 3.75 31.5 3.75V2.25ZM29.909 2.90901C29.487 3.33097 29.25 3.90327 29.25 4.5H30.75C30.75 4.30109 30.829 4.11032 30.9697 3.96967L29.909 2.90901ZM29.25 4.5C29.25 5.09673 29.487 5.66903 29.909 6.09099L30.9697 5.03033C30.829 4.88968 30.75 4.69891 30.75 4.5H29.25ZM29.909 6.09099C30.331 6.51295 30.9033 6.75 31.5 6.75V5.25C31.3011 5.25 31.1103 5.17098 30.9697 5.03033L29.909 6.09099Z" fill="#07184F"/>
</svg>
