<svg width="36" height="36" viewBox="0 0 36 36" fill="none" xmlns="http://www.w3.org/2000/svg">
<path d="M18 25.5C18.3978 25.5 18.7794 25.342 19.0607 25.0607C19.342 24.7794 19.5 24.3978 19.5 24C19.5 23.6022 19.342 23.2206 19.0607 22.9393C18.7794 22.658 18.3978 22.5 18 22.5C17.6022 22.5 17.2206 22.658 16.9393 22.9393C16.658 23.2206 16.5 23.6022 16.5 24C16.5 24.3978 16.658 24.7794 16.9393 25.0607C17.2206 25.342 17.6022 25.5 18 25.5Z" fill="white" stroke="white" stroke-width="1.5" stroke-linecap="round" stroke-linejoin="round"/>
<path d="M31.5 11.0294V24.9704C31.5001 25.1311 31.4571 25.2889 31.3756 25.4274C31.2941 25.5659 31.177 25.68 31.0365 25.7579L18.4365 32.7569C18.3029 32.831 18.1527 32.8699 18 32.8699C17.8473 32.8699 17.6971 32.831 17.5635 32.7569L4.9635 25.7579C4.82298 25.68 4.70588 25.5659 4.62437 25.4274C4.54287 25.2889 4.49992 25.1311 4.5 24.9704V11.0294C4.50019 10.869 4.54326 10.7115 4.62475 10.5733C4.70625 10.4352 4.8232 10.3213 4.9635 10.2434L17.5635 3.24294C17.6971 3.16887 17.8473 3.13 18 3.13C18.1527 3.13 18.3029 3.16887 18.4365 3.24294L31.0365 10.2434C31.1768 10.3213 31.2938 10.4352 31.3752 10.5733C31.4567 10.7115 31.4998 10.869 31.5 11.0294Z" stroke="white" stroke-width="1.5" stroke-linecap="round" stroke-linejoin="round"/>
<path d="M30.75 25.083L18.4365 18.243C18.3029 18.1689 18.1527 18.1301 18 18.1301C17.8473 18.1301 17.6971 18.1689 17.5635 18.243L5.25 25.083M5.292 10.941L17.562 17.757C17.6957 17.8313 17.8462 17.8704 17.9993 17.8704C18.1523 17.8704 18.3028 17.8313 18.4365 17.757L30.75 10.917M18 4.5V18M18 29.25V33" stroke="white" stroke-width="1.5" stroke-linecap="round" stroke-linejoin="round"/>
</svg>
